<svg xmlns="http://www.w3.org/2000/svg" viewBox="0 0 128 128" fill="none">
  <defs>
    <linearGradient id="g" x1="0" y1="0" x2="1" y2="1"><stop offset="0%" stop-color="#6366f1"/><stop offset="100%" stop-color="#06b6d4"/></linearGradient>
  </defs>
  <path d="M40 12 L88 12 C106 12 116 28 110 46 L100 60 L90 80 L78 96 L50 96 L38 80 L28 60 L18 46 C12 28 22 12 40 12 Z" fill="url(#g)" opacity="0.9"/>
  <path d="M46 20 L82 20 C96 20 104 32 100 48 L92 62 L84 78 L74 88 L54 88 L44 78 L36 62 L28 48 C24 32 32 20 46 20 Z" fill="white" opacity="0.2"/>
  <text x="64" y="66" text-anchor="middle" font-family="system-ui" font-size="32" font-weight="800" fill="white">A</text>
  <circle cx="44" cy="36" r="3" fill="white" opacity="0.7"/>
  <circle cx="84" cy="36" r="3" fill="white" opacity="0.7"/>
</svg>
